<svg xmlns="http://www.w3.org/2000/svg" xmlns:xlink="http://www.w3.org/1999/xlink" width="40" zoomAndPan="magnify" viewBox="0 0 30 30.000001" height="40" preserveAspectRatio="xMidYMid meet" version="1.0"><defs><g/><clipPath id="4588ec02d8"><path d="M 0.484375 2.183594 L 29.515625 2.183594 L 29.515625 18 L 0.484375 18 Z M 0.484375 2.183594 " clip-rule="nonzero"/></clipPath><clipPath id="daeb6598dd"><path d="M 12.683594 3.773438 C 12.421875 3.304688 12.03125 2.894531 11.53125 2.605469 C 10.042969 1.742188 8.140625 2.25 7.277344 3.738281 L 1.960938 12.949219 L 1.96875 12.953125 L 1.960938 12.960938 L 0.859375 14.871094 C -2.425781 22.527344 16.945312 10.167969 19.089844 8.84375 L 20.105469 8.257812 C 15.167969 10.648438 14.945312 7.691406 12.683594 3.773438 Z M 26.828125 4.503906 C 27.175781 4.515625 27.378906 4.808594 27.371094 5.085938 C 27.359375 5.4375 27.0625 5.644531 26.785156 5.632812 C 26.441406 5.621094 26.230469 5.324219 26.242188 5.050781 C 26.253906 4.691406 26.546875 4.496094 26.828125 4.503906 Z M 21.386719 8.464844 C 21.695312 8.503906 22.140625 8.472656 22.414062 8.410156 C 22.847656 8.3125 22.878906 8.214844 23.222656 8.023438 C 23.214844 7.984375 22.617188 7.027344 22.582031 7.003906 C 22.457031 7.082031 22.332031 7.15625 22.203125 7.242188 C 21.90625 7.441406 21.507812 8.113281 21.386719 8.464844 Z M 24.386719 4.511719 C 24.148438 4.460938 23.550781 4.308594 23.367188 4.285156 C 22.804688 4.21875 22.378906 4.570312 22.03125 4.984375 L 21.53125 5.59375 C 21.746094 5.667969 23.074219 5.914062 23.128906 5.976562 L 24.296875 7.847656 C 24.320312 7.886719 24.359375 7.933594 24.378906 7.972656 C 24.40625 8.027344 24.328125 8.28125 24.308594 8.363281 C 24.269531 8.539062 24.039062 9.496094 24.03125 9.585938 C 24.144531 9.566406 24.289062 9.523438 24.40625 9.496094 C 24.539062 9.464844 24.660156 9.433594 24.789062 9.402344 C 25.296875 9.273438 25.8125 9.050781 26.003906 8.511719 C 26.066406 8.347656 26.195312 7.714844 26.25 7.484375 C 26.324219 7.464844 26.570312 7.332031 26.664062 7.285156 C 26.753906 7.242188 27.253906 6.925781 27.324219 6.867188 L 27.921875 6.378906 C 28.050781 6.246094 28.113281 6.199219 28.261719 6.035156 C 28.542969 5.734375 28.828125 5.351562 29.039062 4.941406 C 29.289062 4.457031 29.398438 3.929688 29.515625 3.371094 C 28.316406 3.074219 27.761719 2.992188 26.570312 3.332031 C 26.359375 3.394531 26.164062 3.472656 25.976562 3.546875 C 25.652344 3.675781 25.4375 3.796875 25.144531 3.96875 C 25.050781 4.023438 24.984375 4.074219 24.882812 4.132812 L 24.632812 4.3125 C 24.550781 4.382812 24.457031 4.433594 24.386719 4.511719 Z M 24.386719 4.511719 " clip-rule="evenodd"/></clipPath><clipPath id="f5fde3cc55"><path d="M 4 10 L 24 10 L 24 26.863281 L 4 26.863281 Z M 4 10 " clip-rule="nonzero"/></clipPath><clipPath id="6755c449fc"><path d="M 17.199219 11.597656 C 6.058594 20.785156 2.09375 25.863281 5.304688 26.839844 L 20.605469 26.839844 L 20.605469 26.824219 C 21.132812 26.824219 21.667969 26.691406 22.15625 26.410156 C 23.640625 25.558594 24.15625 23.660156 23.300781 22.171875 C 21.6875 19.382812 16.269531 13.078125 19.035156 10.097656 C 18.402344 10.609375 17.792969 11.109375 17.203125 11.597656 Z M 17.199219 11.597656 " clip-rule="evenodd"/></clipPath></defs><g fill="#000000" fill-opacity="1"><g transform="translate(9.088597, 9.360335)"><g><path d="M 0.4375 0.015625 C 0.332031 0.015625 0.25 -0.0078125 0.1875 -0.0625 C 0.132812 -0.113281 0.109375 -0.191406 0.109375 -0.296875 C 0.109375 -0.359375 0.117188 -0.410156 0.140625 -0.453125 C 0.171875 -0.492188 0.210938 -0.523438 0.265625 -0.546875 C 0.316406 -0.578125 0.382812 -0.597656 0.46875 -0.609375 C 0.539062 -0.617188 0.597656 -0.628906 0.640625 -0.640625 C 0.679688 -0.660156 0.707031 -0.679688 0.71875 -0.703125 C 0.738281 -0.722656 0.75 -0.75 0.75 -0.78125 C 0.75 -0.832031 0.726562 -0.867188 0.6875 -0.890625 C 0.65625 -0.910156 0.601562 -0.921875 0.53125 -0.921875 C 0.46875 -0.921875 0.410156 -0.90625 0.359375 -0.875 C 0.316406 -0.851562 0.273438 -0.816406 0.234375 -0.765625 L 0.21875 -0.765625 L 0.140625 -0.875 C 0.179688 -0.9375 0.234375 -0.984375 0.296875 -1.015625 C 0.367188 -1.046875 0.445312 -1.0625 0.53125 -1.0625 C 0.65625 -1.0625 0.742188 -1.035156 0.796875 -0.984375 C 0.859375 -0.929688 0.890625 -0.859375 0.890625 -0.765625 L 0.890625 -0.203125 C 0.890625 -0.148438 0.914062 -0.125 0.96875 -0.125 C 0.988281 -0.125 1.003906 -0.125 1.015625 -0.125 L 1.03125 -0.125 L 1.046875 -0.015625 C 1.035156 -0.00390625 1.019531 0 1 0 C 0.976562 0 0.960938 0 0.953125 0 C 0.890625 0 0.84375 -0.0078125 0.8125 -0.03125 C 0.78125 -0.0507812 0.765625 -0.0859375 0.765625 -0.140625 L 0.734375 -0.140625 C 0.710938 -0.0859375 0.675781 -0.046875 0.625 -0.015625 C 0.570312 0.00390625 0.507812 0.015625 0.4375 0.015625 Z M 0.46875 -0.109375 C 0.519531 -0.109375 0.566406 -0.117188 0.609375 -0.140625 C 0.648438 -0.171875 0.679688 -0.207031 0.703125 -0.25 C 0.734375 -0.300781 0.75 -0.359375 0.75 -0.421875 L 0.75 -0.5625 L 0.734375 -0.5625 C 0.703125 -0.539062 0.671875 -0.523438 0.640625 -0.515625 C 0.609375 -0.503906 0.5625 -0.492188 0.5 -0.484375 C 0.4375 -0.484375 0.390625 -0.472656 0.359375 -0.453125 C 0.328125 -0.429688 0.300781 -0.40625 0.28125 -0.375 C 0.269531 -0.351562 0.265625 -0.328125 0.265625 -0.296875 C 0.265625 -0.234375 0.28125 -0.1875 0.3125 -0.15625 C 0.351562 -0.125 0.40625 -0.109375 0.46875 -0.109375 Z M 0.46875 -0.109375 "/></g></g></g><g clip-path="url(#4588ec02d8)"><g clip-path="url(#daeb6598dd)"><path fill="#fd1638" d="M 0.484375 2.183594 L 0.484375 22.527344 L 29.515625 22.527344 L 29.515625 2.183594 Z M 0.484375 2.183594 " fill-opacity="1" fill-rule="nonzero"/></g></g><g clip-path="url(#f5fde3cc55)"><g clip-path="url(#6755c449fc)"><path fill="#737373" d="M 2.09375 10.097656 L 2.09375 26.839844 L 24.15625 26.839844 L 24.15625 10.097656 Z M 2.09375 10.097656 " fill-opacity="1" fill-rule="nonzero"/></g></g></svg>