<svg xmlns="http://www.w3.org/2000/svg" xmlns:xlink="http://www.w3.org/1999/xlink" width="400" zoomAndPan="magnify" viewBox="0 0 187.5 74.999997" height="150" preserveAspectRatio="xMidYMid meet" version="1.0"><defs><g/><clipPath id="3e6246e4dd"><path d="M 0 0.101562 L 187 0.101562 L 187 74.898438 L 0 74.898438 Z M 0 0.101562 " clip-rule="nonzero"/></clipPath><clipPath id="e54326338d"><path d="M 0 13.894531 L 55.351562 13.894531 L 55.351562 43 L 0 43 Z M 0 13.894531 " clip-rule="nonzero"/></clipPath><clipPath id="62da96527b"><path d="M 23.351562 16.949219 C 22.847656 16.046875 22.101562 15.265625 21.144531 14.710938 C 18.296875 13.0625 14.652344 14.035156 13.003906 16.878906 L 2.828125 34.507812 L 2.839844 34.511719 L 2.828125 34.53125 L 0.714844 38.1875 C -5.570312 52.835938 31.507812 29.1875 35.605469 26.65625 L 37.554688 25.53125 C 28.101562 30.105469 27.679688 24.441406 23.351562 16.949219 Z M 50.417969 18.347656 C 51.082031 18.367188 51.472656 18.933594 51.457031 19.457031 C 51.4375 20.132812 50.867188 20.527344 50.339844 20.507812 C 49.675781 20.484375 49.277344 19.917969 49.292969 19.390625 C 49.316406 18.707031 49.878906 18.332031 50.417969 18.347656 Z M 40.003906 25.921875 C 40.597656 26.003906 41.445312 25.941406 41.96875 25.824219 C 42.804688 25.636719 42.859375 25.445312 43.519531 25.082031 C 43.503906 25.003906 42.359375 23.171875 42.292969 23.128906 C 42.050781 23.28125 41.8125 23.425781 41.566406 23.585938 C 40.996094 23.964844 40.238281 25.253906 40.003906 25.921875 Z M 45.75 18.359375 C 45.289062 18.265625 44.144531 17.96875 43.792969 17.925781 C 42.71875 17.800781 41.898438 18.472656 41.238281 19.265625 L 40.28125 20.433594 C 40.6875 20.574219 43.230469 21.046875 43.335938 21.167969 L 45.578125 24.742188 C 45.621094 24.816406 45.695312 24.910156 45.730469 24.984375 C 45.785156 25.09375 45.632812 25.574219 45.59375 25.734375 C 45.519531 26.066406 45.082031 27.898438 45.0625 28.070312 C 45.28125 28.035156 45.5625 27.953125 45.785156 27.898438 C 46.035156 27.835938 46.269531 27.78125 46.515625 27.71875 C 47.488281 27.472656 48.476562 27.046875 48.84375 26.019531 C 48.957031 25.699219 49.207031 24.492188 49.3125 24.050781 C 49.453125 24.011719 49.921875 23.761719 50.105469 23.671875 C 50.273438 23.589844 51.230469 22.980469 51.367188 22.871094 L 52.507812 21.933594 C 52.761719 21.679688 52.875 21.589844 53.164062 21.277344 C 53.703125 20.703125 54.25 19.96875 54.652344 19.1875 C 55.132812 18.257812 55.335938 17.242188 55.5625 16.175781 C 53.265625 15.605469 52.203125 15.449219 49.925781 16.105469 C 49.523438 16.21875 49.144531 16.367188 48.789062 16.511719 C 48.167969 16.761719 47.761719 16.992188 47.195312 17.324219 C 47.019531 17.425781 46.886719 17.527344 46.695312 17.636719 L 46.214844 17.980469 C 46.058594 18.117188 45.882812 18.214844 45.746094 18.359375 Z M 45.75 18.359375 " clip-rule="evenodd"/></clipPath><clipPath id="3cd33491e9"><path d="M 7 29 L 45 29 L 45 61.019531 L 7 61.019531 Z M 7 29 " clip-rule="nonzero"/></clipPath><clipPath id="b87ab79cbd"><path d="M 31.992188 31.917969 C 10.667969 49.503906 3.082031 59.226562 9.226562 61.089844 L 38.511719 61.089844 L 38.511719 61.0625 C 39.519531 61.066406 40.539062 60.808594 41.472656 60.273438 C 44.320312 58.636719 45.300781 55.003906 43.664062 52.160156 C 40.582031 46.820312 30.207031 34.753906 35.507812 29.050781 C 34.296875 30.03125 33.125 30.984375 31.996094 31.917969 Z M 31.992188 31.917969 " clip-rule="evenodd"/></clipPath></defs><g clip-path="url(#3e6246e4dd)"><path fill="#ffffff" d="M 0 0.101562 L 187 0.101562 L 187 74.898438 L 0 74.898438 Z M 0 0.101562 " fill-opacity="1" fill-rule="nonzero"/><path fill="#ffffff" d="M 0 0.101562 L 187 0.101562 L 187 74.898438 L 0 74.898438 Z M 0 0.101562 " fill-opacity="1" fill-rule="nonzero"/></g><g clip-path="url(#e54326338d)"><g clip-path="url(#62da96527b)"><path fill="#fd1638" d="M 0 13.894531 L 0 52.835938 L 55.351562 52.835938 L 55.351562 13.894531 Z M 0 13.894531 " fill-opacity="1" fill-rule="nonzero"/></g></g><g clip-path="url(#3cd33491e9)"><g clip-path="url(#b87ab79cbd)"><path fill="#737373" d="M 3.082031 29.050781 L 3.082031 61.019531 L 45.300781 61.019531 L 45.300781 29.050781 Z M 3.082031 29.050781 " fill-opacity="1" fill-rule="nonzero"/></g></g><g fill="#fd1638" fill-opacity="1"><g transform="translate(72.985159, 31.887727)"><g><path d="M 5.65625 -3.25 L 14.015625 -3.25 L 14.015625 0 L 1.5625 0 L 1.5625 -17.84375 L 5.65625 -17.84375 Z M 5.65625 -3.25 "/></g></g></g><g fill="#fd1638" fill-opacity="1"><g transform="translate(87.509029, 31.887727)"><g><path d="M 5.640625 0.34375 C 4.273438 0.34375 3.191406 -0.00390625 2.390625 -0.703125 C 1.585938 -1.410156 1.1875 -2.363281 1.1875 -3.5625 C 1.1875 -4.28125 1.3125 -4.910156 1.5625 -5.453125 C 1.8125 -6.003906 2.253906 -6.46875 2.890625 -6.84375 C 3.535156 -7.21875 4.429688 -7.503906 5.578125 -7.703125 L 8.75 -8.234375 C 9.375 -8.347656 9.804688 -8.503906 10.046875 -8.703125 C 10.296875 -8.898438 10.421875 -9.191406 10.421875 -9.578125 C 10.421875 -10.046875 10.253906 -10.421875 9.921875 -10.703125 C 9.585938 -10.992188 8.972656 -11.140625 8.078125 -11.140625 C 6.304688 -11.140625 5.394531 -10.441406 5.34375 -9.046875 L 1.453125 -9.046875 C 1.503906 -10.472656 2.097656 -11.632812 3.234375 -12.53125 C 4.367188 -13.425781 5.957031 -13.875 8 -13.875 C 10.039062 -13.875 11.5625 -13.46875 12.5625 -12.65625 C 13.5625 -11.84375 14.0625 -10.71875 14.0625 -9.28125 L 14.0625 -3.484375 C 14.0625 -2.859375 14.078125 -2.265625 14.109375 -1.703125 C 14.148438 -1.140625 14.207031 -0.570312 14.28125 0 L 10.8125 0 C 10.738281 -0.445312 10.6875 -0.898438 10.65625 -1.359375 C 10.625 -1.816406 10.609375 -2.320312 10.609375 -2.875 C 10.296875 -1.9375 9.734375 -1.164062 8.921875 -0.5625 C 8.109375 0.0390625 7.015625 0.34375 5.640625 0.34375 Z M 6.984375 -2.359375 C 8.035156 -2.359375 8.867188 -2.71875 9.484375 -3.4375 C 10.109375 -4.15625 10.421875 -5.140625 10.421875 -6.390625 L 10.421875 -6.984375 C 10.078125 -6.742188 9.722656 -6.5625 9.359375 -6.4375 C 9.003906 -6.3125 8.625 -6.207031 8.21875 -6.125 L 7.09375 -5.859375 C 6.375 -5.671875 5.859375 -5.4375 5.546875 -5.15625 C 5.242188 -4.882812 5.09375 -4.488281 5.09375 -3.96875 C 5.09375 -3.4375 5.269531 -3.035156 5.625 -2.765625 C 5.988281 -2.492188 6.441406 -2.359375 6.984375 -2.359375 Z M 6.984375 -2.359375 "/></g></g></g><g fill="#fd1638" fill-opacity="1"><g transform="translate(103.053063, 31.887727)"><g><path d="M 11.1875 -13.421875 L 15.171875 -13.421875 L 15.171875 0 L 11.1875 0 L 11.1875 -2.578125 C 10.78125 -1.679688 10.191406 -0.957031 9.421875 -0.40625 C 8.648438 0.144531 7.65625 0.421875 6.4375 0.421875 C 4.6875 0.421875 3.40625 -0.078125 2.59375 -1.078125 C 1.78125 -2.078125 1.375 -3.453125 1.375 -5.203125 L 1.375 -13.421875 L 5.34375 -13.421875 L 5.34375 -5.796875 C 5.34375 -4.742188 5.570312 -3.984375 6.03125 -3.515625 C 6.488281 -3.046875 7.132812 -2.8125 7.96875 -2.8125 C 8.96875 -2.8125 9.753906 -3.179688 10.328125 -3.921875 C 10.898438 -4.671875 11.1875 -5.804688 11.1875 -7.328125 Z M 11.1875 -13.421875 "/></g></g></g><g fill="#fd1638" fill-opacity="1"><g transform="translate(119.778336, 31.887727)"><g><path d="M 10.359375 -13.84375 C 12.117188 -13.84375 13.390625 -13.347656 14.171875 -12.359375 C 14.960938 -11.367188 15.359375 -9.992188 15.359375 -8.234375 L 15.359375 0 L 11.375 0 L 11.375 -7.625 C 11.375 -8.695312 11.15625 -9.460938 10.71875 -9.921875 C 10.28125 -10.390625 9.648438 -10.625 8.828125 -10.625 C 7.773438 -10.625 6.960938 -10.265625 6.390625 -9.546875 C 5.816406 -8.835938 5.53125 -7.6875 5.53125 -6.09375 L 5.53125 0 L 1.5625 0 L 1.5625 -13.421875 L 5.53125 -13.421875 L 5.53125 -10.796875 C 5.957031 -11.703125 6.5625 -12.4375 7.34375 -13 C 8.132812 -13.5625 9.140625 -13.84375 10.359375 -13.84375 Z M 10.359375 -13.84375 "/></g></g></g><g fill="#fd1638" fill-opacity="1"><g transform="translate(136.50361, 31.887727)"><g><path d="M 1 -6.71875 C 1 -7.96875 1.25 -9.132812 1.75 -10.21875 C 2.25 -11.300781 3.039062 -12.175781 4.125 -12.84375 C 5.207031 -13.507812 6.613281 -13.84375 8.34375 -13.84375 C 9.90625 -13.84375 11.195312 -13.582031 12.21875 -13.0625 C 13.238281 -12.550781 14.007812 -11.851562 14.53125 -10.96875 C 15.0625 -10.082031 15.34375 -9.082031 15.375 -7.96875 L 11.515625 -7.96875 C 11.441406 -8.8125 11.160156 -9.484375 10.671875 -9.984375 C 10.191406 -10.484375 9.441406 -10.734375 8.421875 -10.734375 C 7.347656 -10.734375 6.507812 -10.4375 5.90625 -9.84375 C 5.300781 -9.257812 5 -8.21875 5 -6.71875 C 5 -5.1875 5.289062 -4.128906 5.875 -3.546875 C 6.46875 -2.972656 7.300781 -2.6875 8.375 -2.6875 C 9.425781 -2.6875 10.207031 -2.957031 10.71875 -3.5 C 11.226562 -4.050781 11.519531 -4.726562 11.59375 -5.53125 L 15.46875 -5.53125 C 15.445312 -4.488281 15.175781 -3.507812 14.65625 -2.59375 C 14.132812 -1.6875 13.359375 -0.957031 12.328125 -0.40625 C 11.304688 0.144531 10.003906 0.421875 8.421875 0.421875 C 6.691406 0.421875 5.273438 0.0859375 4.171875 -0.578125 C 3.066406 -1.242188 2.257812 -2.117188 1.75 -3.203125 C 1.25 -4.285156 1 -5.457031 1 -6.71875 Z M 1 -6.71875 "/></g></g></g><g fill="#fd1638" fill-opacity="1"><g transform="translate(152.853031, 31.887727)"><g><path d="M 10.359375 -13.84375 C 12.117188 -13.84375 13.390625 -13.347656 14.171875 -12.359375 C 14.960938 -11.367188 15.359375 -9.992188 15.359375 -8.234375 L 15.359375 0 L 11.375 0 L 11.375 -7.625 C 11.375 -8.695312 11.15625 -9.460938 10.71875 -9.921875 C 10.28125 -10.390625 9.648438 -10.625 8.828125 -10.625 C 7.773438 -10.625 6.960938 -10.265625 6.390625 -9.546875 C 5.816406 -8.835938 5.53125 -7.6875 5.53125 -6.09375 L 5.53125 0 L 1.5625 0 L 1.5625 -18.796875 L 5.53125 -18.796875 L 5.53125 -10.796875 C 5.957031 -11.703125 6.5625 -12.4375 7.34375 -13 C 8.132812 -13.5625 9.140625 -13.84375 10.359375 -13.84375 Z M 10.359375 -13.84375 "/></g></g></g><g fill="#737373" fill-opacity="1"><g transform="translate(56.271915, 57.319907)"><g><path d="M 10.625 0.453125 C 8.90625 0.453125 7.445312 0.195312 6.25 -0.3125 C 5.050781 -0.820312 4.082031 -1.507812 3.34375 -2.375 C 2.601562 -3.238281 2.0625 -4.234375 1.71875 -5.359375 C 1.375 -6.492188 1.203125 -7.675781 1.203125 -8.90625 C 1.203125 -10.125 1.375 -11.289062 1.71875 -12.40625 C 2.0625 -13.53125 2.601562 -14.535156 3.34375 -15.421875 C 4.082031 -16.304688 5.050781 -17.007812 6.25 -17.53125 C 7.445312 -18.050781 8.90625 -18.3125 10.625 -18.3125 C 12.34375 -18.3125 13.796875 -18.050781 14.984375 -17.53125 C 16.179688 -17.007812 17.148438 -16.304688 17.890625 -15.421875 C 18.628906 -14.535156 19.171875 -13.53125 19.515625 -12.40625 C 19.859375 -11.289062 20.03125 -10.125 20.03125 -8.90625 C 20.03125 -7.675781 19.859375 -6.5 19.515625 -5.375 C 19.171875 -4.257812 18.628906 -3.265625 17.890625 -2.390625 C 17.148438 -1.515625 16.179688 -0.820312 14.984375 -0.3125 C 13.796875 0.195312 12.34375 0.453125 10.625 0.453125 Z M 5.46875 -8.90625 C 5.46875 -7.625 5.625 -6.535156 5.9375 -5.640625 C 6.257812 -4.742188 6.796875 -4.0625 7.546875 -3.59375 C 8.296875 -3.132812 9.320312 -2.90625 10.625 -2.90625 C 11.9375 -2.90625 12.96875 -3.132812 13.71875 -3.59375 C 14.46875 -4.0625 15 -4.742188 15.3125 -5.640625 C 15.625 -6.535156 15.78125 -7.625 15.78125 -8.90625 C 15.78125 -10.238281 15.625 -11.347656 15.3125 -12.234375 C 15 -13.128906 14.46875 -13.8125 13.71875 -14.28125 C 12.96875 -14.75 11.9375 -14.984375 10.625 -14.984375 C 9.320312 -14.984375 8.296875 -14.75 7.546875 -14.28125 C 6.796875 -13.8125 6.257812 -13.128906 5.9375 -12.234375 C 5.625 -11.347656 5.46875 -10.238281 5.46875 -8.90625 Z M 5.46875 -8.90625 "/></g></g></g><g fill="#737373" fill-opacity="1"><g transform="translate(77.507374, 57.319907)"><g><path d="M 10.359375 -13.84375 C 12.117188 -13.84375 13.390625 -13.347656 14.171875 -12.359375 C 14.960938 -11.367188 15.359375 -9.992188 15.359375 -8.234375 L 15.359375 0 L 11.375 0 L 11.375 -7.625 C 11.375 -8.695312 11.15625 -9.460938 10.71875 -9.921875 C 10.28125 -10.390625 9.648438 -10.625 8.828125 -10.625 C 7.773438 -10.625 6.960938 -10.265625 6.390625 -9.546875 C 5.816406 -8.835938 5.53125 -7.6875 5.53125 -6.09375 L 5.53125 0 L 1.5625 0 L 1.5625 -13.421875 L 5.53125 -13.421875 L 5.53125 -10.796875 C 5.957031 -11.703125 6.5625 -12.4375 7.34375 -13 C 8.132812 -13.5625 9.140625 -13.84375 10.359375 -13.84375 Z M 10.359375 -13.84375 "/></g></g></g><g fill="#737373" fill-opacity="1"><g transform="translate(94.232647, 57.319907)"><g><path d="M 1.5625 0 L 1.5625 -18.796875 L 5.53125 -18.796875 L 5.53125 0 Z M 1.5625 0 "/></g></g></g><g fill="#737373" fill-opacity="1"><g transform="translate(101.293237, 57.319907)"><g><path d="M 1.375 -15.1875 L 1.375 -17.84375 L 5.6875 -17.84375 L 5.6875 -15.1875 Z M 1.5625 0 L 1.5625 -13.421875 L 5.53125 -13.421875 L 5.53125 0 Z M 1.5625 0 "/></g></g></g><g fill="#737373" fill-opacity="1"><g transform="translate(108.353826, 57.319907)"><g><path d="M 10.359375 -13.84375 C 12.117188 -13.84375 13.390625 -13.347656 14.171875 -12.359375 C 14.960938 -11.367188 15.359375 -9.992188 15.359375 -8.234375 L 15.359375 0 L 11.375 0 L 11.375 -7.625 C 11.375 -8.695312 11.15625 -9.460938 10.71875 -9.921875 C 10.28125 -10.390625 9.648438 -10.625 8.828125 -10.625 C 7.773438 -10.625 6.960938 -10.265625 6.390625 -9.546875 C 5.816406 -8.835938 5.53125 -7.6875 5.53125 -6.09375 L 5.53125 0 L 1.5625 0 L 1.5625 -13.421875 L 5.53125 -13.421875 L 5.53125 -10.796875 C 5.957031 -11.703125 6.5625 -12.4375 7.34375 -13 C 8.132812 -13.5625 9.140625 -13.84375 10.359375 -13.84375 Z M 10.359375 -13.84375 "/></g></g></g><g fill="#737373" fill-opacity="1"><g transform="translate(125.0791, 57.319907)"><g><path d="M 8.296875 -2.3125 C 9.171875 -2.3125 9.847656 -2.472656 10.328125 -2.796875 C 10.816406 -3.128906 11.148438 -3.546875 11.328125 -4.046875 L 15.140625 -4.046875 C 15.015625 -3.335938 14.710938 -2.632812 14.234375 -1.9375 C 13.765625 -1.25 13.046875 -0.679688 12.078125 -0.234375 C 11.109375 0.203125 9.820312 0.421875 8.21875 0.421875 C 6.476562 0.421875 5.078125 0.0859375 4.015625 -0.578125 C 2.953125 -1.242188 2.179688 -2.125 1.703125 -3.21875 C 1.234375 -4.3125 1 -5.484375 1 -6.734375 C 1 -8.046875 1.25 -9.238281 1.75 -10.3125 C 2.257812 -11.382812 3.050781 -12.238281 4.125 -12.875 C 5.207031 -13.519531 6.570312 -13.84375 8.21875 -13.84375 C 9.914062 -13.84375 11.269531 -13.515625 12.28125 -12.859375 C 13.289062 -12.210938 14.023438 -11.351562 14.484375 -10.28125 C 14.941406 -9.207031 15.171875 -8.035156 15.171875 -6.765625 C 15.171875 -6.566406 15.171875 -6.375 15.171875 -6.1875 C 15.171875 -6 15.148438 -5.832031 15.109375 -5.6875 L 4.890625 -5.6875 C 5.015625 -4.414062 5.375 -3.535156 5.96875 -3.046875 C 6.570312 -2.554688 7.347656 -2.3125 8.296875 -2.3125 Z M 8.265625 -11.171875 C 7.316406 -11.171875 6.5625 -10.945312 6 -10.5 C 5.4375 -10.050781 5.070312 -9.253906 4.90625 -8.109375 L 11.375 -8.109375 C 11.25 -10.148438 10.210938 -11.171875 8.265625 -11.171875 Z M 8.265625 -11.171875 "/></g></g></g><g fill="#737373" fill-opacity="1"><g transform="translate(141.186906, 57.319907)"><g/></g></g><g fill="#ef0325" fill-opacity="1"><g transform="translate(147.984376, 57.319907)"><g><path d="M 1.046875 -5.875 L 5.015625 -5.875 C 5.066406 -4.925781 5.410156 -4.140625 6.046875 -3.515625 C 6.679688 -2.890625 7.707031 -2.578125 9.125 -2.578125 C 10.488281 -2.578125 11.425781 -2.789062 11.9375 -3.21875 C 12.457031 -3.644531 12.71875 -4.21875 12.71875 -4.9375 C 12.71875 -6.226562 11.921875 -6.976562 10.328125 -7.1875 L 6.390625 -7.703125 C 4.816406 -7.898438 3.597656 -8.425781 2.734375 -9.28125 C 1.878906 -10.144531 1.453125 -11.3125 1.453125 -12.78125 C 1.453125 -14.382812 2.0625 -15.707031 3.28125 -16.75 C 4.507812 -17.789062 6.378906 -18.3125 8.890625 -18.3125 C 10.671875 -18.3125 12.113281 -18.050781 13.21875 -17.53125 C 14.332031 -17.007812 15.160156 -16.3125 15.703125 -15.4375 C 16.253906 -14.570312 16.566406 -13.613281 16.640625 -12.5625 L 12.640625 -12.5625 C 12.535156 -13.40625 12.175781 -14.070312 11.5625 -14.5625 C 10.957031 -15.050781 10.066406 -15.296875 8.890625 -15.296875 C 7.796875 -15.296875 6.96875 -15.085938 6.40625 -14.671875 C 5.84375 -14.265625 5.5625 -13.710938 5.5625 -13.015625 C 5.5625 -12.492188 5.722656 -12.054688 6.046875 -11.703125 C 6.378906 -11.347656 6.914062 -11.125 7.65625 -11.03125 L 11.375 -10.578125 C 15.007812 -10.160156 16.828125 -8.414062 16.828125 -5.34375 C 16.828125 -4.175781 16.566406 -3.15625 16.046875 -2.28125 C 15.535156 -1.40625 14.707031 -0.726562 13.5625 -0.25 C 12.425781 0.21875 10.929688 0.453125 9.078125 0.453125 C 7.609375 0.453125 6.367188 0.28125 5.359375 -0.0625 C 4.347656 -0.414062 3.53125 -0.890625 2.90625 -1.484375 C 2.289062 -2.085938 1.832031 -2.769531 1.53125 -3.53125 C 1.238281 -4.289062 1.078125 -5.070312 1.046875 -5.875 Z M 1.046875 -5.875 "/></g></g></g><g fill="#ef0325" fill-opacity="1"><g transform="translate(165.917733, 57.319907)"><g><path d="M 15.484375 0 L 14.203125 -3.65625 L 6.203125 -3.65625 L 4.90625 0 L 0.8125 0 L 7.09375 -17.84375 L 13.3125 -17.84375 L 19.59375 0 Z M 7.296875 -6.796875 L 13.09375 -6.796875 L 10.203125 -15.03125 Z M 7.296875 -6.796875 "/></g></g></g></svg>
